{
 "cells": [
  {
   "cell_type": "code",
   "execution_count": 1,
   "metadata": {},
   "outputs": [],
   "source": [
    "from src import *\n",
    "import ffmpegio\n",
    "from data.scanner.CAVA_V1 import datasets_cava_v1\n",
    "gpu = 0"
   ]
  },
  {
   "cell_type": "code",
   "execution_count": 2,
   "metadata": {},
   "outputs": [],
   "source": [
    "def load_experiment(results_dir, model):\n",
    "    param = torch.load(os.path.join(results_dir, \"param.pth\"))\n",
    "    spec = importlib.util.spec_from_file_location(\"module.name\", os.path.abspath(os.path.join(results_dir, os.path.basename(param.experiment.script_file_path))))\n",
    "    experiment_script = importlib.util.module_from_spec(spec)\n",
    "    sys.modules[\"module.name\"] = experiment_script\n",
    "    spec.loader.exec_module(experiment_script)\n",
    "    exp = experiment_script.load_experiment(results_dir, model, gpu=gpu)\n",
    "    return exp"
   ]
  },
  {
   "cell_type": "code",
   "execution_count": 15,
   "metadata": {},
   "outputs": [],
   "source": [
    "dataset_nr = 20\n",
    "results_dir = \"results/cava_v1/20/FMLP/validation/225/s_t 1.0 s_x 30.0 mlp_width 512 mlp_layers 7/\"\n",
    "model = \"training/ser_highscore.pth\"\n",
    "exp = load_experiment(results_dir, model)"
   ]
  },
  {
   "cell_type": "code",
   "execution_count": 16,
   "metadata": {},
   "outputs": [
    {
     "name": "stderr",
     "output_type": "stream",
     "text": [
      "Input #0, rawvideo, from 'pipe:':\n",
      "  Duration: N/A, start: 0.000000, bitrate: 41472 kb/s\n",
      "    Stream #0:0: Video: rawvideo (RGB[24] / 0x18424752), rgb24, 240x240, 41472 kb/s, 30 tbr, 30 tbn, 30 tbc\n",
      "Stream mapping:\n",
      "  Stream #0:0 -> #0:0 (rawvideo (native) -> h264 (libx264))\n",
      "[libx264 @ 0x562b56994980] using cpu capabilities: MMX2 SSE2Fast SSSE3 SSE4.2 AVX FMA3 BMI2 AVX2 AVX512\n",
      "[libx264 @ 0x562b56994980] profile High 4:4:4 Predictive, level 1.3, 4:4:4 8-bit\n",
      "[libx264 @ 0x562b56994980] 264 - core 152 r2854 e9a5903 - H.264/MPEG-4 AVC codec - Copyleft 2003-2017 - http://www.videolan.org/x264.html - options: cabac=1 ref=3 deblock=1:0:0 analyse=0x1:0x111 me=hex subme=7 psy=1 psy_rd=1.00:0.00 mixed_ref=1 me_range=16 chroma_me=1 trellis=1 8x8dct=0 cqm=0 deadzone=21,11 fast_pskip=1 chroma_qp_offset=4 threads=7 lookahead_threads=1 sliced_threads=0 nr=0 decimate=1 interlaced=0 bluray_compat=0 constrained_intra=0 bframes=3 b_pyramid=2 b_adapt=1 b_bias=0 direct=1 weightb=1 open_gop=0 weightp=2 keyint=250 keyint_min=25 scenecut=40 intra_refresh=0 rc_lookahead=40 rc=crf mbtree=1 crf=23.0 qcomp=0.60 qpmin=0 qpmax=69 qpstep=4 ip_ratio=1.40 aq=1:1.00\n",
      "Output #0, mp4, to 'supplements/highres/FMLP/225/30fps_cfr.mp4':\n",
      "  Metadata:\n",
      "    encoder         : Lavf57.83.100\n",
      "    Stream #0:0: Video: h264 (libx264) (avc1 / 0x31637661), yuv444p, 240x240, q=-1--1, 30 fps, 15360 tbn, 30 tbc\n",
      "    Metadata:\n",
      "      encoder         : Lavc57.107.100 libx264\n",
      "    Side data:\n",
      "      cpb: bitrate max/min/avg: 0/0/0 buffer size: 0 vbv_delay: -1\n",
      "frame=  225 fps=0.0 q=-1.0 Lsize=     221kB time=00:00:07.40 bitrate= 244.9kbits/s speed=16.2x    \n",
      "video:219kB audio:0kB subtitle:0kB other streams:0kB global headers:0kB muxing overhead: 0.828679%\n",
      "[libx264 @ 0x562b56994980] frame I:1     Avg QP:21.45  size:  6217\n",
      "[libx264 @ 0x562b56994980] frame P:213   Avg QP:24.16  size:  1016\n",
      "[libx264 @ 0x562b56994980] frame B:11    Avg QP:22.35  size:   118\n",
      "[libx264 @ 0x562b56994980] consecutive B-frames: 92.4%  0.9%  6.7%  0.0%\n",
      "[libx264 @ 0x562b56994980] mb I  I16..4: 22.2%  0.0% 77.8%\n",
      "[libx264 @ 0x562b56994980] mb P  I16..4:  0.1%  0.0%  0.1%  P16..4: 25.7% 12.2%  9.6%  0.0%  0.0%    skip:52.4%\n",
      "[libx264 @ 0x562b56994980] mb B  I16..4:  0.0%  0.0%  0.1%  B16..8: 10.4%  0.4%  0.2%  direct: 1.6%  skip:87.3%  L0: 9.8% L1:83.3% BI: 7.0%\n",
      "[libx264 @ 0x562b56994980] coded y,u,v intra: 67.8% 0.0% 0.0% inter: 21.3% 0.0% 0.0%\n",
      "[libx264 @ 0x562b56994980] i16 v,h,dc,p: 76%  8% 17%  0%\n",
      "[libx264 @ 0x562b56994980] i4 v,h,dc,ddl,ddr,vr,hd,vl,hu: 21% 12% 14%  7% 11% 13%  7%  9%  6%\n",
      "[libx264 @ 0x562b56994980] Weighted P-Frames: Y:0.0% UV:0.0%\n",
      "[libx264 @ 0x562b56994980] ref P L0: 78.1% 20.9%  0.8%  0.2%\n",
      "[libx264 @ 0x562b56994980] ref B L0: 84.5% 11.6%  3.9%\n",
      "[libx264 @ 0x562b56994980] kb/s:238.94\n",
      "Reading MP4 stream...\n",
      "Done reading\n",
      "Saving MP4 stream...\n",
      "Writing chunk 1/1...\n",
      "Operation completed with no problem\n",
      "ffmpeg version 3.4.11-0ubuntu0.1 Copyright (c) 2000-2022 the FFmpeg developers\n",
      "  built with gcc 7 (Ubuntu 7.5.0-3ubuntu1~18.04)\n",
      "  configuration: --prefix=/usr --extra-version=0ubuntu0.1 --toolchain=hardened --libdir=/usr/lib/x86_64-linux-gnu --incdir=/usr/include/x86_64-linux-gnu --enable-gpl --disable-stripping --enable-avresample --enable-avisynth --enable-gnutls --enable-ladspa --enable-libass --enable-libbluray --enable-libbs2b --enable-libcaca --enable-libcdio --enable-libflite --enable-libfontconfig --enable-libfreetype --enable-libfribidi --enable-libgme --enable-libgsm --enable-libmp3lame --enable-libmysofa --enable-libopenjpeg --enable-libopenmpt --enable-libopus --enable-libpulse --enable-librubberband --enable-librsvg --enable-libshine --enable-libsnappy --enable-libsoxr --enable-libspeex --enable-libssh --enable-libtheora --enable-libtwolame --enable-libvorbis --enable-libvpx --enable-libwavpack --enable-libwebp --enable-libx265 --enable-libxml2 --enable-libxvid --enable-libzmq --enable-libzvbi --enable-omx --enable-openal --enable-opengl --enable-sdl2 --enable-libdc1394 --enable-libdrm --enable-libiec61883 --enable-chromaprint --enable-frei0r --enable-libopencv --enable-libx264 --enable-shared\n",
      "  libavutil      55. 78.100 / 55. 78.100\n",
      "  libavcodec     57.107.100 / 57.107.100\n",
      "  libavformat    57. 83.100 / 57. 83.100\n",
      "  libavdevice    57. 10.100 / 57. 10.100\n",
      "  libavfilter     6.107.100 /  6.107.100\n",
      "  libavresample   3.  7.  0 /  3.  7.  0\n",
      "  libswscale      4.  8.100 /  4.  8.100\n",
      "  libswresample   2.  9.100 /  2.  9.100\n",
      "  libpostproc    54.  7.100 / 54.  7.100\n",
      "Input #0, mov,mp4,m4a,3gp,3g2,mj2, from 'supplements/highres/FMLP/225/timecoded_vfr.mp4':\n",
      "  Metadata:\n",
      "    major_brand     : isom\n",
      "    minor_version   : 512\n",
      "    compatible_brands: isomiso2avc1mp41\n",
      "    encoder         : Lavf57.83.100\n",
      "  Duration: 00:00:07.50, start: 0.000000, bitrate: 244 kb/s\n",
      "    Stream #0:0(und): Video: h264 (High 4:4:4 Predictive) (avc1 / 0x31637661), yuv444p, 240x240, 373 kb/s, 46.79 fps, 30 tbr, 1k tbn, 60 tbc (default)\n",
      "    Metadata:\n",
      "      creation_time   : 2023-04-18T14:52:03.000000Z\n",
      "      handler_name    : VideoHandler\n",
      "Stream mapping:\n",
      "  Stream #0:0 -> #0:0 (h264 (native) -> h264 (libx264))\n",
      "Press [q] to stop, [?] for help\n",
      "[libx264 @ 0x559e7f770ee0] using cpu capabilities: MMX2 SSE2Fast SSSE3 SSE4.2 AVX FMA3 BMI2 AVX2 AVX512\n",
      "[libx264 @ 0x559e7f770ee0] profile High 4:4:4 Predictive, level 1.3, 4:4:4 8-bit\n",
      "[libx264 @ 0x559e7f770ee0] 264 - core 152 r2854 e9a5903 - H.264/MPEG-4 AVC codec - Copyleft 2003-2017 - http://www.videolan.org/x264.html - options: cabac=1 ref=3 deblock=1:0:0 analyse=0x1:0x111 me=hex subme=7 psy=1 psy_rd=1.00:0.00 mixed_ref=1 me_range=16 chroma_me=1 trellis=1 8x8dct=0 cqm=0 deadzone=21,11 fast_pskip=1 chroma_qp_offset=4 threads=7 lookahead_threads=1 sliced_threads=0 nr=0 decimate=1 interlaced=0 bluray_compat=0 constrained_intra=0 bframes=3 b_pyramid=2 b_adapt=1 b_bias=0 direct=1 weightb=1 open_gop=0 weightp=2 keyint=250 keyint_min=25 scenecut=40 intra_refresh=0 rc_lookahead=40 rc=crf mbtree=1 crf=23.0 qcomp=0.60 qpmin=0 qpmax=69 qpstep=4 ip_ratio=1.40 aq=1:1.00\n",
      "Output #0, mp4, to 'supplements/highres/FMLP/225/timecoded_cfr.mp4':\n",
      "  Metadata:\n",
      "    major_brand     : isom\n",
      "    minor_version   : 512\n",
      "    compatible_brands: isomiso2avc1mp41\n",
      "    encoder         : Lavf57.83.100\n",
      "    Stream #0:0(und): Video: h264 (libx264) (avc1 / 0x31637661), yuv444p, 240x240, q=-1--1, 30 fps, 15360 tbn, 30 tbc (default)\n",
      "    Metadata:\n",
      "      creation_time   : 2023-04-18T14:52:03.000000Z\n",
      "      handler_name    : VideoHandler\n",
      "      encoder         : Lavc57.107.100 libx264\n",
      "    Side data:\n",
      "      cpb: bitrate max/min/avg: 0/0/0 buffer size: 0 vbv_delay: -1\n",
      "Past duration 0.769997 too large\n",
      "frame=  145 fps=0.0 q=-1.0 Lsize=     156kB time=00:00:04.73 bitrate= 269.5kbits/s dup=0 drop=79 speed=16.3x    \n",
      "video:154kB audio:0kB subtitle:0kB other streams:0kB global headers:0kB muxing overhead: 0.991867%\n",
      "[libx264 @ 0x559e7f770ee0] frame I:1     Avg QP:21.53  size:  5961\n",
      "[libx264 @ 0x559e7f770ee0] frame P:136   Avg QP:24.81  size:  1101\n",
      "[libx264 @ 0x559e7f770ee0] frame B:8     Avg QP:24.82  size:   191\n",
      "[libx264 @ 0x559e7f770ee0] consecutive B-frames: 90.3%  5.5%  4.1%  0.0%\n",
      "[libx264 @ 0x559e7f770ee0] mb I  I16..4: 22.7%  0.0% 77.3%\n",
      "[libx264 @ 0x559e7f770ee0] mb P  I16..4:  0.1%  0.0%  0.4%  P16..4: 25.9% 13.7%  9.1%  0.0%  0.0%    skip:50.8%\n",
      "[libx264 @ 0x559e7f770ee0] mb B  I16..4:  0.1%  0.0%  0.1%  B16..8: 14.3%  1.3%  0.8%  direct: 2.2%  skip:81.3%  L0:11.4% L1:76.4% BI:12.2%\n",
      "[libx264 @ 0x559e7f770ee0] coded y,u,v intra: 72.5% 0.0% 0.0% inter: 21.9% 0.0% 0.0%\n",
      "[libx264 @ 0x559e7f770ee0] i16 v,h,dc,p: 78%  4% 16%  1%\n",
      "[libx264 @ 0x559e7f770ee0] i4 v,h,dc,ddl,ddr,vr,hd,vl,hu: 22% 11% 13%  7% 11% 12%  8% 10%  7%\n",
      "[libx264 @ 0x559e7f770ee0] Weighted P-Frames: Y:0.0% UV:0.0%\n",
      "[libx264 @ 0x559e7f770ee0] ref P L0: 75.1% 23.8%  0.9%  0.2%\n",
      "[libx264 @ 0x559e7f770ee0] ref B L0: 98.2%  1.8%\n",
      "[libx264 @ 0x559e7f770ee0] kb/s:260.19\n"
     ]
    }
   ],
   "source": [
    "def render_mp4(imgs, export_dir, frame_times):\n",
    "    create_dir(export_dir)\n",
    "\n",
    "    imgs_rgb = imgs.copy()\n",
    "    img_max_val = datasets_cava_v1[dataset_nr][\"brightness\"]\n",
    "\n",
    "    imgs_rgb /= img_max_val\n",
    "    imgs_rgb[imgs_rgb > 1.] = 1. # clip maximum\n",
    "    imgs_rgb[imgs_rgb < 0] = 0. # clip minimum (should not be necessary for absolute valued images)\n",
    "    imgs_rgb *= 255\n",
    "    imgs_rgb = np.uint8(imgs_rgb)\n",
    "\n",
    "    imgs_rgb = np.expand_dims(imgs_rgb, axis=3)\n",
    "    imgs_rgb = imgs_rgb.repeat(3, axis=3)\n",
    "\n",
    "    raw_video_file = os.path.join(export_dir, '30fps_cfr.mp4')\n",
    "\n",
    "    ffmpegio.video.write(raw_video_file, 30, imgs_rgb, overwrite=True)\n",
    "\n",
    "    # write timecode file\n",
    "\n",
    "    timecode = \"\"\"# timecode format v2\n",
    "\n",
    "    \"\"\"\n",
    "    for i, t_k in enumerate(frame_times):\n",
    "        if i >= len(imgs): break\n",
    "        timecode += \"{}\\n\".format(t_k * 1000)\n",
    "\n",
    "    timecodes_file = os.path.join(export_dir, 'timecodes.txt')\n",
    "    with open(timecodes_file, 'w') as f:\n",
    "        f.write(timecode)\n",
    "\n",
    "    timecoded_vfr_file = os.path.join(export_dir, 'timecoded_vfr.mp4')\n",
    "    timecoded_cfr_file = os.path.join(export_dir, 'timecoded_cfr.mp4')\n",
    "\n",
    "\n",
    "    os.system(\"mp4fpsmod -o \\\"{}\\\" -t \\\"{}\\\" \\\"{}\\\"\".format(timecoded_vfr_file, timecodes_file, raw_video_file))\n",
    "    os.system(\"ffmpeg -y -i \\\"{}\\\" \\\"{}\\\"\".format(timecoded_vfr_file, timecoded_cfr_file))\n",
    "\n",
    "\n",
    "if dataset_nr == 10 or dataset_nr == 15:\n",
    "    imgs = np.stack([np.rot90(exp.model.evaluate_npy(sample)[26:-26,65:-65]) for sample in exp.dataset])\n",
    "else:\n",
    "    imgs = np.stack([np.rot90(exp.model.evaluate_npy(sample)[47:-47,120:-120]) for sample in exp.dataset])\n",
    "\n",
    "export_dir = \"supplements/highres/FMLP/225/\"\n",
    "render_mp4(imgs, export_dir, exp.param.data.frame_times)\n"
   ]
  },
  {
   "cell_type": "code",
   "execution_count": 7,
   "metadata": {},
   "outputs": [],
   "source": [
    "all_images = []\n",
    "\n",
    "images = [exp.model.evaluate_npy(exp.dataset[k]) for k in [105, 115, 125, 135]]\n",
    "if dataset_nr == 10 or dataset_nr == 15: # low-res\n",
    "    images = [np.rot90(img[26:-26,65:-65]) for img in images]\n",
    "else: # high-res\n",
    "    images = [np.rot90(img[47:-47,120:-120]) for img in images]\n",
    "all_images.append(images)\n",
    "\n",
    "import glob, tikzplotlib\n",
    "\n",
    "fig, axes = plt.subplots(nrows=4, ncols=1, figsize=(9, 9))\n",
    "brightness = datasets_cava_v1[dataset_nr][\"brightness\"]\n",
    "for i, img in enumerate(images):\n",
    "    axes[i].imshow(img, cmap=\"gray\", vmax=brightness, vmin=0)\n",
    "\n",
    "create_dir(os.path.join(results_dir, \"figures\"))\n",
    "tex_file_name = os.path.join(results_dir, \"figures/fmlp.tex\")\n",
    "for file in glob.glob(os.path.splitext(tex_file_name)[0] + \"-*\"):\n",
    "    os.remove(file)\n",
    "tikzplotlib.save(tex_file_name, standalone=False)"
   ]
  }
 ],
 "metadata": {
  "kernelspec": {
   "display_name": "base",
   "language": "python",
   "name": "python3"
  },
  "language_info": {
   "codemirror_mode": {
    "name": "ipython",
    "version": 3
   },
   "file_extension": ".py",
   "mimetype": "text/x-python",
   "name": "python",
   "nbconvert_exporter": "python",
   "pygments_lexer": "ipython3",
   "version": "3.7.7"
  },
  "orig_nbformat": 4,
  "vscode": {
   "interpreter": {
    "hash": "d4d1e4263499bec80672ea0156c357c1ee493ec2b1c70f0acce89fc37c4a6abe"
   }
  }
 },
 "nbformat": 4,
 "nbformat_minor": 2
}
